<svg width="423" height="226" viewBox="0 0 423 226" fill="none" xmlns="http://www.w3.org/2000/svg">
<path fill-rule="evenodd" clip-rule="evenodd" d="M396.1 27.9999H302.4C301.8 27.0999 301.2 26.1999 300.6 25.2999C296 18.4999 291.5 11.6 286.8 4.89996C285.1 2.29996 282.1 0.199951 278.9 0.199951C268.3 0.199951 257.8 0.199951 247.2 0.199951C246 0.199951 244.8 0.199951 243.6 0.199951C234.3 0.199951 225.1 0.199951 215.8 0.199951C213.8 0.199951 211.8 0.199951 209.8 0.199951C204.3 0.199951 198.7 0.199951 193.2 0.199951C187.7 0.199951 182.2 0.199951 176.7 0.199951C174.7 0.199951 172.7 0.199951 170.7 0.199951C161.4 0.199951 152.2 0.199951 142.9 0.199951C141.7 0.199951 140.5 0.199951 139.3 0.199951C128.7 0.199951 118.2 0.199951 107.6 0.199951C104.4 0.199951 101.4 2.29996 99.6997 4.89996C95.0997 11.7 90.5997 18.5999 85.8997 25.2999C81.3997 32.1999 76.7997 38.9999 72.1997 45.7999C68.7997 50.6999 71.5997 57.0999 77.6997 57.0999C91.9997 57.0999 106.3 57.0999 120.6 57.0999C128 57.0999 135.4 57.0999 142.8 57.0999C149.5 57.0999 156.1 57.0999 162.8 57.0999C167.4 57.0999 172 57.0999 176.6 57.0999C182.1 57.0999 187.7 57.0999 193.2 57.0999C198.7 57.0999 204.2 57.0999 209.7 57.0999C214.3 57.0999 218.9 57.0999 223.5 57.0999C230.2 57.0999 236.8 57.0999 243.5 57.0999C250.9 57.0999 258.4 57.0999 265.8 57.0999C280.1 57.0999 294.3 57.0999 308.6 57.0999C314.7 57.0999 317.5 50.6999 314.2 45.7999C311.5 41.7999 308.9 37.9 306.2 33.9H395.9C407.2 33.9 416.4 43.2 416.4 54.4V125.3V132.1V154.7C416.4 166 407.1 175.2 395.9 175.2H385C384.8 173.8 384.6 172.5 384.5 171.1C383.8 165 382 162 376.8 160.5C376.7 157.7 376.7 154.9 376.8 152.1C376.9 147 377.4 142.1 377.8 137C378.1 133.3 379 127.6 376.2 124.7C375.1 123.3 373.7 121.2 372.8 119.7C370.8 116.7 368.7 113.5 366.6 110.4C365.1 108.3 363.3 105.5 361.3 103.1C363.2 101.6 364.6 99.6 364.2 96.9C363.6 92 356.9 89.8 352.9 88.4C350.8 87.6 348.4 86.7999 346.1 86.2999C344.2 85.9999 341.5 85.8 339.4 85.7C335.1 85.2 330.8 85 326.4 84.7C313.9 83.8 301.3 83 288.8 82.2C274.7 81.3 260.5 80.3999 246.4 79.5999C214.7 77.5999 174.5 82.8999 145 94.9999C135.3 98.9999 125.8 104.6 116.7 109.7C107.9 114.4 93.5997 122.3 83.4997 123.1C76.4997 123.7 68.6997 125.2 61.8997 126.8C44.6997 130.8 27.8997 136.6 12.1997 144.4C0.0997391 150.4 0.499727 174.4 0.999727 186.2C1.49973 196.8 2.39974 201.8 14.1997 202.5C19.7997 202.9 25.4997 203.1 31.0997 203.2C31.0997 203.2 31.0997 203.2 31.0997 203.3H37.1997C36.2997 200 35.6997 196.6 35.6997 193.1C35.6997 173.1 51.9997 156.9 71.7997 156.9C91.7997 156.9 108 173.2 108 193.1C108 196.6 107.4 200 106.5 203.3H108.1L107.9 203.9L112.4 204L270.5 203.3H272.3C271.4 200 270.8 196.6 270.8 193.1C270.8 173.1 287.1 156.9 306.9 156.9C326.9 156.9 343.1 173.2 343.1 193.1C343.1 195.2 342.9 197.3 342.5 199.4L348.6 198.3L367.6 194.8C372.5 193.9 379.8 193.7 383.1 189.6C385 187.1 385.2 184.1 385.1 181H395.6C410.2 181 422 169.1 422 154.6V132V125.2V54.2999C422.5 39.9999 410.7 27.9999 396.1 27.9999ZM299.2 33.9999H266.4C265.3 31.3999 264.2 28.8999 263.2 26.2999C262.5 24.5999 261.7 22.7999 261 21.0999H290.7C292.4 23.5999 294.1 26.1 295.7 28.7C296.9 30.5 298 32.2999 299.2 33.9999ZM132.1 21.2H161.8C161.4 23.4 161 25.6 160.6 27.7C160.2 29.8 159.9 31.8999 159.5 33.9999H126.7C127.4 32.1999 128.2 30.5 128.9 28.7C130 26.2 131.1 23.7 132.1 21.2ZM166.5 28.7C166.9 26.2 167.4 23.6999 167.8 21.0999H190.3V33.9999H165.5C165.9 32.2999 166.2 30.5 166.5 28.7ZM196.3 21.2H218.9C219.4 23.7 219.8 26.1999 220.3 28.7999C220.6 30.5999 220.9 32.2999 221.2 34.0999H196.4V21.2H196.3ZM226 27.7C225.6 25.5 225.3 23.3 224.9 21.2H254.6C255.7 23.7 256.7 26.1999 257.8 28.7999C258.6 30.5999 259.3 32.2999 260.1 34.0999H227.3C226.8 31.8999 226.4 29.8 226 27.7ZM282 8.19995C283.6 10.6 285.1 12.8999 286.7 15.2999H258.5C257.2 12.1999 255.9 9.19995 254.7 6.19995C262.8 6.19995 270.9 6.19995 279 6.19995C279.8 6.19995 281.2 7.09995 282 8.19995ZM247.2 6.19995C247.8 6.19995 248.6 7.09995 249.1 8.19995C250.1 10.6 251.1 12.8999 252 15.2999H223.8C223.3 12.5999 222.8 9.89995 222.3 7.19995C222.2 6.89995 222.2 6.49995 222.1 6.19995C229.2 6.19995 236.4 6.19995 243.5 6.19995C244.8 6.19995 246 6.19995 247.2 6.19995ZM215.8 6.19995C216 6.19995 216.4 7.09995 216.6 8.19995C217 10.6 217.4 12.8999 217.8 15.2999H196.3V6.19995C200.8 6.19995 205.3 6.19995 209.8 6.19995C211.9 6.19995 213.9 6.19995 215.8 6.19995ZM176.8 6.19995C181.3 6.19995 185.8 6.19995 190.3 6.19995V15.2999H168.8C169.2 12.8999 169.6 10.6 170 8.19995C170.2 7.09995 170.6 6.19995 170.8 6.19995C172.8 6.19995 174.8 6.19995 176.8 6.19995ZM143 6.19995C150.1 6.19995 157.3 6.19995 164.4 6.19995C164.3 6.49995 164.2 6.89995 164.2 7.19995C163.7 9.89995 163.2 12.5999 162.8 15.2999H134.6C135.6 12.8999 136.6 10.6 137.6 8.19995C138.1 7.09995 138.8 6.19995 139.4 6.19995C140.6 6.19995 141.8 6.19995 143 6.19995ZM104.7 8.19995C105.5 7.09995 106.8 6.19995 107.7 6.19995C115.8 6.19995 123.9 6.19995 132 6.19995C130.7 9.19995 129.5 12.2999 128.2 15.2999H99.8997C101.5 12.8999 103.1 10.6 104.7 8.19995ZM95.9997 21.2H125.7C125 22.9 124.2 24.7 123.5 26.4C122.4 29 121.3 31.4999 120.3 34.0999H87.4997C88.6997 32.2999 89.8997 30.5999 91.0997 28.7999C92.6997 26.1999 94.3997 23.7 95.9997 21.2ZM77.1997 49.2C79.2997 46.1 81.3997 43 83.3997 39.9H117.7C116.7 42.2 115.7 44.6 114.7 46.9C114.1 48.3 113.9 49.8999 114.1 51.2999C102 51.2999 89.8997 51.2999 77.7997 51.2999C76.7997 51.2999 76.4997 50.3 77.1997 49.2ZM120.8 51.2999C120 51.2999 119.8 50.3 120.3 49.2C121.6 46.1 122.9 43 124.2 39.9H158.5C158 42.7 157.5 45.3999 157 48.0999C156.8 49.0999 156.8 50.1999 156.9 51.2999C152.3 51.2999 147.6 51.2999 143 51.2999C135.6 51.2999 128.2 51.2999 120.8 51.2999ZM163 51.2999C162.8 51.2999 162.7 50.3 162.9 49.2C163.4 46.1 164 43 164.5 39.9H190.3V51.2999C185.8 51.2999 181.3 51.2999 176.8 51.2999C172.2 51.2999 167.6 51.2999 163 51.2999ZM209.9 51.2999C205.4 51.2999 200.9 51.2999 196.4 51.2999V39.9H222.3C222.9 43 223.4 46.1 224 49.2C224.1 50.3 224.1 51.2999 223.8 51.2999C219 51.2999 214.5 51.2999 209.9 51.2999ZM243.6 51.2999C239 51.2999 234.4 51.2999 229.7 51.2999C229.8 50.2999 229.8 49.1999 229.6 48.0999C229.1 45.3999 228.7 42.6 228.2 39.9H262.5C263.8 43 265.1 46.1 266.4 49.2C266.9 50.3 266.6 51.2999 265.9 51.2999C258.5 51.2999 251.1 51.2999 243.6 51.2999ZM308.7 51.2999C296.6 51.2999 284.5 51.2999 272.4 51.2999C272.6 49.8999 272.4 48.3 271.8 46.9C270.8 44.6 269.8 42.2 268.8 39.9H303.1C305.2 43 307.2 46.1 309.3 49.2C310.2 50.3 309.9 51.2999 308.7 51.2999ZM265.6 197.6L114 198.3C114.2 196.7 114.3 195 114.3 193.3C114.3 192.9 114.3 192.5 114.3 192.1H265.5C265.5 192.5 265.5 192.9 265.5 193.3C265.4 194.7 265.5 196.2 265.6 197.6ZM367.1 189.2L349.5 192.3C349 169.5 330.4 151.1 307.4 151.1C286.7 151.1 269.4 166.2 266 186.1H113.7C110.3 166.2 92.9997 151.1 72.1997 151.1C49.0997 151.1 30.1997 169.9 30.1997 193.2C30.1997 194.6 30.2998 196 30.3998 197.3C24.6998 197.2 18.9997 197 14.7997 196.7C7.59972 196.2 7.5997 195.3 7.0997 186C6.4997 173.7 6.99973 153.8 14.9997 149.9C51.7997 131.7 84.0997 129.1 84.0997 129.1C101.8 127.9 128.8 108.3 147.4 100.7C176.5 88.7 216.4 83.9 246.2 85.7C275.7 87.5 341.7 91.7 345 92.4C349.3 93.3 358.3 96.8 358.4 97.9C358.5 98.9 351.4 101.6 351.4 101.6C357.9 106.3 369.5 126.4 372.1 128.9C373.3 130.1 369.8 149.8 371.2 163.2C371.4 165 372.3 165.7 373.7 165.9C377.1 166.5 378.1 166.8 378.7 171.9C380.5 188.8 381.7 186.5 367.1 189.2Z" fill="#14FF93"/>
<path fill-rule="evenodd" clip-rule="evenodd" d="M322.2 103.7C306.1 99.5 289.4 96 272.8 93.9C261.5 92.3 249.4 91.2999 238 92.0999C217.1 93.5999 197.8 94.5999 177.3 100.3C153.9 106.7 131.6 117.8 110.6 129.9C109.1 130.8 107.6 131.7 106.3 132.8C103.9 134.7 102.3 137.4 103.3 140.6C104.7 145.7 110.2 145.9 114.5 145.7L296.7 134.6C304.7 134 305.3 133.7 312.2 129.7L326.5 121.2C330.1 119.1 333.6 115.8 332.6 111.2C331.4 106.4 326.4 104.8 322.2 103.7ZM238.4 97.9999C238.7 97.9999 239.1 98 239.4 97.9L239.2 132L231.8 132.4L236.1 98.0999C236.9 98.0999 237.7 98.0999 238.4 97.9999ZM114 139.7C106.3 140.3 107.9 138.2 113.4 135.1C169.9 102.5 199.2 100.4 230 98.5999L225.7 132.9L114 139.7ZM323.3 116.2L309 124.7C302.7 128.4 303.5 128.2 296.2 128.7L245.2 131.8L245.3 97.9C271.2 97.7 304.6 105.3 320.7 109.6C325.9 110.8 329.9 112.4 323.3 116.2Z" fill="#14FF93"/>
<path fill-rule="evenodd" clip-rule="evenodd" d="M72.1999 160.4C54.0999 160.4 39.3999 175.1 39.3999 193.2C39.3999 211.3 54.1999 226 72.1999 226C90.3999 226 105 211.2 105 193.2C105 175.1 90.2999 160.4 72.1999 160.4ZM72.1999 220.2C57.3999 220.2 45.2999 208.1 45.2999 193.3C45.2999 178.4 57.3999 166.3 72.1999 166.3C87.0999 166.3 99.1999 178.4 99.1999 193.3C99.0999 208.1 87.0999 220.2 72.1999 220.2Z" fill="#14FF93"/>
<path fill-rule="evenodd" clip-rule="evenodd" d="M72.1998 177.8C63.6998 177.8 56.7998 184.7 56.7998 193.3C56.7998 201.8 63.6998 208.7 72.1998 208.7C80.7998 208.7 87.6998 201.8 87.6998 193.3C87.5998 184.7 80.6998 177.8 72.1998 177.8ZM72.1998 202.8C66.9998 202.8 62.6998 198.5 62.6998 193.3C62.6998 188 66.9998 183.8 72.1998 183.8C77.4998 183.8 81.6998 188 81.6998 193.3C81.5998 198.5 77.4998 202.8 72.1998 202.8Z" fill="#14FF93"/>
<path fill-rule="evenodd" clip-rule="evenodd" d="M307.4 160.4C289.3 160.4 274.6 175.1 274.6 193.2C274.6 211.3 289.4 226 307.4 226C325.6 226 340.2 211.2 340.2 193.2C340.2 175.1 325.6 160.4 307.4 160.4ZM307.4 220.2C292.6 220.2 280.5 208.1 280.5 193.3C280.5 178.4 292.6 166.3 307.4 166.3C322.3 166.3 334.4 178.4 334.4 193.3C334.4 208.1 322.3 220.2 307.4 220.2Z" fill="#14FF93"/>
<path fill-rule="evenodd" clip-rule="evenodd" d="M307.4 177.8C298.9 177.8 292 184.7 292 193.3C292 201.8 298.9 208.7 307.4 208.7C316 208.7 322.9 201.8 322.9 193.3C322.9 184.7 316 177.8 307.4 177.8ZM307.4 202.8C302.2 202.8 297.9 198.5 297.9 193.3C297.9 188 302.2 183.8 307.4 183.8C312.7 183.8 316.9 188 316.9 193.3C316.9 198.5 312.7 202.8 307.4 202.8Z" fill="#14FF93"/>
<path fill-rule="evenodd" clip-rule="evenodd" d="M212.8 145.1H198.1C196.5 145.1 195.2 146.5 195.2 148.1C195.2 149.7 196.6 151 198.1 151H212.8C214.4 151 215.7 149.6 215.7 148.1C215.7 146.5 214.4 145.1 212.8 145.1Z" fill="#14FF93"/>
</svg>
